{"asset":{"generator":"3D Builder","version":"2.0"},"scene":0,"scenes":[{"nodes":[0]}],"nodes":[{"mesh":0,"matrix":[43.793247222900391,0,0,0,0,-5.2205618885636795E-6,-43.793243408203125,0,0,43.793243408203125,-5.2205618885636795E-6,0,0,4.2265433819466125E-8,-0.0026393122971057892,1]}],"meshes":[{"primitives":[{"attributes":{"POSITION":0,"TEXCOORD_0":1},"mode":4,"indices":2,"material":0}]}],"materials":[{"pbrMetallicRoughness":{"baseColorFactor":[1,1,1,1],"metallicFactor":1,"roughnessFactor":1,"baseColorTexture":{"index":0,"texCoord":0},"metallicRoughnessTexture":{"index":1,"texCoord":0}},"alphaMode":"OPAQUE"}],"textures":[{"source":0,"sampler":0},{"source":1,"sampler":0}],"images":[{"uri":"521197386_2048x2048_6195987693227547908.png"},{"uri":"4033277810_4x4_17319628118832143767.png"}],"samplers":[{"magFilter":9729,"wrapS":10497,"wrapT":10497}],"accessors":[{"bufferView":0,"byteOffset":0,"count":16413,"componentType":5126,"type":"VEC3","min":[-0.0077140401117503643,-0.022672733291983604,-9.71822733397687E-10],"max":[0.0077140401117503643,0.022552194073796272,0.02460981160402298]},{"bufferView":1,"byteOffset":0,"count":16413,"componentType":5126,"type":"VEC2"},{"bufferView":2,"byteOffset":0,"count":94644,"componentType":5125,"type":"SCALAR"}],"bufferViews":[{"buffer":0,"byteOffset":0,"byteLength":196956,"byteStride":12,"target":34962},{"buffer":0,"byteOffset":196956,"byteLength":131304,"byteStride":8,"target":34962},{"buffer":0,"byteOffset":328260,"byteLength":378576,"target":34963}],"buffers":[{"byteLength":706836,"uri":"ClownFish.bin"}]}