{"asset":{"generator":"3D Builder","version":"2.0"},"scene":0,"scenes":[{"nodes":[0]}],"nodes":[{"mesh":0,"matrix":[-14.010668754577637,9.6557405413477682E-6,2.0503992345766164E-5,0,-1.0877844033529982E-5,10.563199043273926,-1.5011492967605591,0,-1.9669530956889503E-5,-1.4970656633377075,-10.53472900390625,0,0.56860369443893433,1.6029088497161865,0.072986088693141937,1]}],"meshes":[{"primitives":[{"attributes":{"POSITION":0,"TEXCOORD_0":2},"mode":4,"indices":4,"material":0},{"attributes":{"POSITION":1,"TEXCOORD_0":3},"mode":4,"indices":5,"material":1}]}],"materials":[{"pbrMetallicRoughness":{"baseColorFactor":[1,1,1,1],"metallicFactor":0,"roughnessFactor":1,"baseColorTexture":{"index":0,"texCoord":0}},"alphaMode":"OPAQUE"},{"pbrMetallicRoughness":{"baseColorFactor":[1,1,1,1],"metallicFactor":0,"roughnessFactor":1,"baseColorTexture":{"index":1,"texCoord":0}},"alphaMode":"OPAQUE"}],"textures":[{"source":0,"sampler":0},{"source":1,"sampler":0}],"images":[{"uri":"aaa.jpg"},{"uri":"purmesh.jpg"}],"samplers":[{"magFilter":9729,"wrapS":10497,"wrapT":10497}],"accessors":[{"bufferView":0,"byteOffset":0,"count":10,"componentType":5126,"type":"VEC3","min":[0,0,0],"max":[0.071373999118804932,0.093726001679897308,0.0093979993835091591]},{"bufferView":0,"byteOffset":120,"count":5,"componentType":5126,"type":"VEC3","min":[0,0,0],"max":[0.071373999118804932,0.093726001679897308,0]},{"bufferView":1,"byteOffset":0,"count":10,"componentType":5126,"type":"VEC2"},{"bufferView":1,"byteOffset":80,"count":5,"componentType":5126,"type":"VEC2"},{"bufferView":2,"byteOffset":0,"count":39,"componentType":5125,"type":"SCALAR"},{"bufferView":2,"byteOffset":156,"count":9,"componentType":5125,"type":"SCALAR"}],"bufferViews":[{"buffer":0,"byteOffset":0,"byteLength":180,"byteStride":12,"target":34962},{"buffer":0,"byteOffset":180,"byteLength":120,"byteStride":8,"target":34962},{"buffer":0,"byteOffset":300,"byteLength":192,"target":34963}],"buffers":[{"byteLength":492,"uri":"aaa.bin"}]}