{"asset":{"generator":"3D Builder","version":"2.0"},"scene":0,"scenes":[{"nodes":[0]}],"nodes":[{"mesh":0,"matrix":[41.485172271728516,0,0,0,0,-4.9454179134045262E-6,-41.48516845703125,0,0,41.48516845703125,-4.9454179134045262E-6,0,-0.0032533025369048119,0.035671334713697433,0.26592239737510681,1]}],"meshes":[{"primitives":[{"attributes":{"POSITION":0,"TEXCOORD_0":1},"mode":4,"indices":2,"material":0}]}],"materials":[{"pbrMetallicRoughness":{"baseColorFactor":[1,1,1,1],"metallicFactor":1,"roughnessFactor":1,"baseColorTexture":{"index":0,"texCoord":0},"metallicRoughnessTexture":{"index":1,"texCoord":0}},"alphaMode":"OPAQUE"}],"textures":[{"source":0,"sampler":0},{"source":1,"sampler":0}],"images":[{"uri":"336607145_2048x2048_6195987693227547908.png"},{"uri":"3848687569_2048x2048_17319628118832143767.png"}],"samplers":[{"magFilter":9729,"wrapS":10497,"wrapT":10497}],"accessors":[{"bufferView":0,"byteOffset":0,"count":12912,"componentType":5126,"type":"VEC3","min":[-0.0060243126936256886,-0.023297041654586792,-0.00017617792764212936],"max":[0.0061811539344489574,0.03611716628074646,0.016607988625764847]},{"bufferView":1,"byteOffset":0,"count":12912,"componentType":5126,"type":"VEC2"},{"bufferView":2,"byteOffset":0,"count":71520,"componentType":5125,"type":"SCALAR"}],"bufferViews":[{"buffer":0,"byteOffset":0,"byteLength":154944,"byteStride":12,"target":34962},{"buffer":0,"byteOffset":154944,"byteLength":103296,"byteStride":8,"target":34962},{"buffer":0,"byteOffset":258240,"byteLength":286080,"target":34963}],"buffers":[{"byteLength":544320,"uri":"Fish.bin"}]}