{"asset":{"generator":"3D Builder","version":"2.0"},"scene":0,"scenes":[{"nodes":[0]}],"nodes":[{"mesh":0,"matrix":[1,0,0,0,0,-1.1920928955078125E-7,-0.99999988079071045,0,0,0.99999988079071045,-1.1920928955078125E-7,0,-0.03352804109454155,0.025851085782051086,0.024002876132726669,1]}],"meshes":[{"primitives":[{"attributes":{"POSITION":0,"TEXCOORD_0":2},"mode":4,"indices":4,"material":0},{"attributes":{"POSITION":1,"TEXCOORD_0":3},"mode":4,"indices":5,"material":1}]}],"materials":[{"pbrMetallicRoughness":{"baseColorFactor":[1,1,1,1],"metallicFactor":0,"roughnessFactor":1,"baseColorTexture":{"index":0,"texCoord":0}},"alphaMode":"OPAQUE"},{"pbrMetallicRoughness":{"baseColorFactor":[1,1,1,1],"metallicFactor":0,"roughnessFactor":1,"baseColorTexture":{"index":1,"texCoord":0}},"alphaMode":"OPAQUE"}],"textures":[{"source":0,"sampler":0},{"source":1,"sampler":0}],"images":[{"uri":"download.jpg"},{"uri":"newsprnt.jpg"}],"samplers":[{"magFilter":9729,"wrapS":10497,"wrapT":10497}],"accessors":[{"bufferView":0,"byteOffset":0,"count":2564,"componentType":5126,"type":"VEC3","min":[-0.29586508870124817,-0.0090611577033996582,0.348512202501297],"max":[0.36292114853858948,0.057066928595304489,0.82014262676239014]},{"bufferView":0,"byteOffset":30768,"count":1280,"componentType":5126,"type":"VEC3","min":[-0.29586508870124817,0.057066887617111206,0.348512202501297],"max":[0.36292114853858948,0.057066928595304489,0.82014262676239014]},{"bufferView":1,"byteOffset":0,"count":2564,"componentType":5126,"type":"VEC2"},{"bufferView":1,"byteOffset":20512,"count":1280,"componentType":5126,"type":"VEC2"},{"bufferView":2,"byteOffset":0,"count":14493,"componentType":5125,"type":"SCALAR"},{"bufferView":2,"byteOffset":57972,"count":5763,"componentType":5125,"type":"SCALAR"}],"bufferViews":[{"buffer":0,"byteOffset":0,"byteLength":46128,"byteStride":12,"target":34962},{"buffer":0,"byteOffset":46128,"byteLength":30752,"byteStride":8,"target":34962},{"buffer":0,"byteOffset":76880,"byteLength":81024,"target":34963}],"buffers":[{"byteLength":157904,"uri":"b2.bin"}]}