{"asset":{"generator":"3D Builder","version":"2.0"},"scene":0,"scenes":[{"nodes":[0]}],"nodes":[{"mesh":0,"matrix":[14.214809417724609,0,0,0,0,-1.6945373317867052E-6,-14.214807510375977,0,0,14.214807510375977,-1.6945373317867052E-6,0,9.5764931757003069E-5,-0.00011778160114772618,0.048877563327550888,1]}],"meshes":[{"primitives":[{"attributes":{"POSITION":0,"TEXCOORD_0":1},"mode":4,"indices":2,"material":0}]}],"materials":[{"pbrMetallicRoughness":{"baseColorFactor":[1,1,1,1],"metallicFactor":1,"roughnessFactor":1,"baseColorTexture":{"index":0,"texCoord":0},"metallicRoughnessTexture":{"index":1,"texCoord":0}},"alphaMode":"OPAQUE"}],"textures":[{"source":0,"sampler":0},{"source":1,"sampler":0}],"images":[{"uri":"4025778192_2048x2048_6195987693227547908.png"},{"uri":"3242891320_4x4_17319628118832143767.png"}],"samplers":[{"magFilter":9729,"wrapS":10497,"wrapT":10497}],"accessors":[{"bufferView":0,"byteOffset":0,"count":20848,"componentType":5126,"type":"VEC3","min":[-0.02040683850646019,-0.041272815316915512,8.2864071373478509E-6],"max":[0.02039334736764431,0.048149764537811279,0.18018701672554016]},{"bufferView":1,"byteOffset":0,"count":20848,"componentType":5126,"type":"VEC2"},{"bufferView":2,"byteOffset":0,"count":119328,"componentType":5125,"type":"SCALAR"}],"bufferViews":[{"buffer":0,"byteOffset":0,"byteLength":250176,"byteStride":12,"target":34962},{"buffer":0,"byteOffset":250176,"byteLength":166784,"byteStride":8,"target":34962},{"buffer":0,"byteOffset":416960,"byteLength":477312,"target":34963}],"buffers":[{"byteLength":894272,"uri":"Flamingo.bin"}]}