{"asset":{"generator":"3D Builder","version":"2.0"},"scene":0,"scenes":[{"nodes":[0]}],"nodes":[{"mesh":0,"matrix":[5.6022171974182129,0,0,0,0,-6.67836332013394E-7,-5.6022167205810547,0,0,5.6022167205810547,-6.67836332013394E-7,0,-0.00070351792965084314,0.000226105737965554,0.088368907570838928,1]}],"meshes":[{"primitives":[{"attributes":{"POSITION":0,"TEXCOORD_0":1},"mode":4,"indices":2,"material":0}]}],"materials":[{"pbrMetallicRoughness":{"baseColorFactor":[1,1,1,1],"metallicFactor":1,"roughnessFactor":1,"baseColorTexture":{"index":0,"texCoord":0},"metallicRoughnessTexture":{"index":1,"texCoord":0}},"alphaMode":"OPAQUE"}],"textures":[{"source":0,"sampler":0},{"source":1,"sampler":0}],"images":[{"uri":"2742528520_2048x2048_6195987693227547908.png"},{"uri":"1959641648_2048x2048_17319628118832143767.png"}],"samplers":[{"magFilter":9729,"wrapS":10497,"wrapT":10497}],"accessors":[{"bufferView":0,"byteOffset":0,"count":4433,"componentType":5126,"type":"VEC3","min":[-0.052636917680501938,-0.041289925575256348,-4.035813981317915E-5],"max":[0.052888091653585434,0.072837792336940765,0.14563162624835968]},{"bufferView":1,"byteOffset":0,"count":4433,"componentType":5126,"type":"VEC2"},{"bufferView":2,"byteOffset":0,"count":23814,"componentType":5125,"type":"SCALAR"}],"bufferViews":[{"buffer":0,"byteOffset":0,"byteLength":53196,"byteStride":12,"target":34962},{"buffer":0,"byteOffset":53196,"byteLength":35464,"byteStride":8,"target":34962},{"buffer":0,"byteOffset":88660,"byteLength":95256,"target":34963}],"buffers":[{"byteLength":183916,"uri":"Seagull.bin"}]}