{"asset":{"generator":"3D Builder","version":"2.0"},"scene":0,"scenes":[{"nodes":[0]}],"nodes":[{"mesh":0,"matrix":[198.60780334472656,0,0,0,0,-2.367589513596613E-5,-198.60777282714844,0,0,198.60777282714844,-2.367589513596613E-5,0,0.00083423673640936613,0.0817330926656723,0.33967971801757813,1]}],"meshes":[{"primitives":[{"attributes":{"POSITION":0,"TEXCOORD_0":1},"mode":4,"indices":2,"material":0}]}],"materials":[{"pbrMetallicRoughness":{"baseColorFactor":[1,1,1,1],"metallicFactor":1,"roughnessFactor":1,"baseColorTexture":{"index":0,"texCoord":0},"metallicRoughnessTexture":{"index":1,"texCoord":0}},"alphaMode":"OPAQUE"}],"textures":[{"source":0,"sampler":0},{"source":1,"sampler":0}],"images":[{"uri":"2578696778_2048x2048_6195987693227547908.png"},{"uri":"1795809906_128x128_17319628118832143767.png"}],"samplers":[{"magFilter":9729,"wrapS":10497,"wrapT":10497}],"accessors":[{"bufferView":0,"byteOffset":0,"count":944,"componentType":5126,"type":"VEC3","min":[-0.0020780898630619049,-0.0030118506401777267,-0.00041152993799187243],"max":[0.0020696897991001606,0.006432458758354187,0.0077441288158297539]},{"bufferView":1,"byteOffset":0,"count":944,"componentType":5126,"type":"VEC2"},{"bufferView":2,"byteOffset":0,"count":4500,"componentType":5125,"type":"SCALAR"}],"bufferViews":[{"buffer":0,"byteOffset":0,"byteLength":11328,"byteStride":12,"target":34962},{"buffer":0,"byteOffset":11328,"byteLength":7552,"byteStride":8,"target":34962},{"buffer":0,"byteOffset":18880,"byteLength":18000,"target":34963}],"buffers":[{"byteLength":36880,"uri":"Canada.bin"}]}