{"asset":{"generator":"3D Builder","version":"2.0"},"scene":0,"scenes":[{"nodes":[0,1]}],"nodes":[{"mesh":0,"matrix":[1,0,0,0,0,-1.1920928955078125E-7,-0.99999988079071045,0,0,0.99999988079071045,-1.1920928955078125E-7,0,-0.0697229877114296,0.25928822159767151,-0.0064164744690060616,1]},{"mesh":1,"matrix":[1,0,0,0,0,-1.1920928955078125E-7,-0.99999988079071045,0,0,0.99999988079071045,-1.1920928955078125E-7,0,-0.0697229877114296,-0.16937392950057983,0.046481974422931671,1]}],"meshes":[{"primitives":[{"attributes":{"POSITION":0,"TEXCOORD_0":2},"mode":4,"indices":4,"material":0},{"attributes":{"POSITION":1,"TEXCOORD_0":3},"mode":4,"indices":5,"material":1}]},{"primitives":[{"attributes":{"POSITION":6,"TEXCOORD_0":7},"mode":4,"indices":8,"material":0}]}],"materials":[{"pbrMetallicRoughness":{"baseColorFactor":[1,1,1,1],"metallicFactor":0,"roughnessFactor":1,"baseColorTexture":{"index":0,"texCoord":0}},"alphaMode":"OPAQUE"},{"pbrMetallicRoughness":{"baseColorFactor":[1,1,1,1],"metallicFactor":0,"roughnessFactor":1,"baseColorTexture":{"index":1,"texCoord":0}},"alphaMode":"OPAQUE"}],"textures":[{"source":0,"sampler":0},{"source":1,"sampler":0}],"images":[{"uri":"the-birth-of-venus-c-1485_u-l-q1ga2dm0.jpg"},{"uri":"newsprnt.jpg"}],"samplers":[{"magFilter":9729,"wrapS":10497,"wrapT":10497}],"accessors":[{"bufferView":0,"byteOffset":0,"count":284,"componentType":5126,"type":"VEC3","min":[-0.19428816437721252,0.020032569766044617,0.16937394440174103],"max":[0.33373412489891052,0.072931349277496338,0.521388590335846]},{"bufferView":0,"byteOffset":3408,"count":142,"componentType":5126,"type":"VEC3","min":[-0.19428816437721252,0.072930939495563507,0.16937394440174103],"max":[0.33373412489891052,0.072931349277496338,0.52138853073120117]},{"bufferView":1,"byteOffset":0,"count":284,"componentType":5126,"type":"VEC2"},{"bufferView":1,"byteOffset":2272,"count":142,"componentType":5126,"type":"VEC2"},{"bufferView":2,"byteOffset":0,"count":1575,"componentType":5125,"type":"SCALAR"},{"bufferView":2,"byteOffset":6300,"count":657,"componentType":5125,"type":"SCALAR"},{"bufferView":3,"byteOffset":0,"count":6,"componentType":5126,"type":"VEC3","min":[0.33181062340736389,0.0200326070189476,0.20207475125789642],"max":[0.33373412489891052,0.072930976748466492,0.2039983868598938]},{"bufferView":4,"byteOffset":0,"count":6,"componentType":5126,"type":"VEC2"},{"bufferView":5,"byteOffset":0,"count":24,"componentType":5125,"type":"SCALAR"}],"bufferViews":[{"buffer":0,"byteOffset":0,"byteLength":5112,"byteStride":12,"target":34962},{"buffer":0,"byteOffset":5112,"byteLength":3408,"byteStride":8,"target":34962},{"buffer":0,"byteOffset":8520,"byteLength":8928,"target":34963},{"buffer":0,"byteOffset":17448,"byteLength":72,"byteStride":12,"target":34962},{"buffer":0,"byteOffset":17520,"byteLength":48,"byteStride":8,"target":34962},{"buffer":0,"byteOffset":17568,"byteLength":96,"target":34963}],"buffers":[{"byteLength":17664,"uri":"b4.bin"}]}