{"asset":{"generator":"3D Builder","version":"2.0"},"scene":0,"scenes":[{"nodes":[0,1,2]}],"nodes":[{"mesh":0,"matrix":[1,0,0,0,0,-1.1920928955078125E-7,-0.99999988079071045,0,0,0.99999988079071045,-1.1920928955078125E-7,0,-0.33258956670761108,1.8697359561920166,0.56925719976425171,1]},{"mesh":1,"matrix":[1,0,0,0,0,-1.1920928955078125E-7,-0.99999988079071045,0,0,0.99999988079071045,-1.1920928955078125E-7,0,-0.33258956670761108,1.8697359561920166,0.56925719976425171,1]},{"mesh":2,"matrix":[1,0,0,0,0,-1.1920928955078125E-7,-0.99999988079071045,0,0,0.99999988079071045,-1.1920928955078125E-7,0,-0.33258956670761108,1.8697359561920166,0.56925719976425171,1]}],"meshes":[{"primitives":[{"attributes":{"POSITION":0,"TEXCOORD_0":1},"mode":4,"indices":2,"material":0}]},{"primitives":[{"attributes":{"POSITION":3,"TEXCOORD_0":4},"mode":4,"indices":5,"material":1}]},{"primitives":[{"attributes":{"POSITION":6,"TEXCOORD_0":7},"mode":4,"indices":8,"material":2}]}],"materials":[{"pbrMetallicRoughness":{"baseColorFactor":[1,1,1,1],"metallicFactor":1,"roughnessFactor":1,"baseColorTexture":{"index":0,"texCoord":0},"metallicRoughnessTexture":{"index":1,"texCoord":0}},"alphaMode":"OPAQUE"},{"pbrMetallicRoughness":{"baseColorFactor":[1,1,1,1],"metallicFactor":1,"roughnessFactor":1,"baseColorTexture":{"index":2,"texCoord":0},"metallicRoughnessTexture":{"index":3,"texCoord":0}},"alphaMode":"OPAQUE"},{"pbrMetallicRoughness":{"baseColorFactor":[1,1,1,1],"metallicFactor":1,"roughnessFactor":1,"baseColorTexture":{"index":4,"texCoord":0},"metallicRoughnessTexture":{"index":5,"texCoord":0}},"alphaMode":"OPAQUE"}],"textures":[{"source":0,"sampler":0},{"source":1,"sampler":0},{"source":2,"sampler":0},{"source":3,"sampler":0},{"source":4,"sampler":0},{"source":5,"sampler":0}],"images":[{"uri":"2930151434_1024x1024_6195987693227547908.png"},{"uri":"3988246708_1024x1024_17319628118832143767.png"},{"uri":"345622859_512x512_11563080508590297124.png"},{"uri":"595686100_512x512_12154559721164250551.png"},{"uri":"3819334634_1024x1024_17026833529806663332.png"},{"uri":"2050971700_1024x1024_17618312742380616759.png"}],"samplers":[{"magFilter":9729,"wrapS":10497,"wrapT":10497}],"accessors":[{"bufferView":0,"byteOffset":0,"count":1083,"componentType":5126,"type":"VEC3","min":[-4.9247884750366211,-4.17763614654541,-1.8697359561920166],"max":[5.5899677276611328,5.3161511421203613,6.789067268371582]},{"bufferView":1,"byteOffset":0,"count":1083,"componentType":5126,"type":"VEC2"},{"bufferView":2,"byteOffset":0,"count":5193,"componentType":5125,"type":"SCALAR"},{"bufferView":3,"byteOffset":0,"count":44,"componentType":5126,"type":"VEC3","min":[-1.2325176000595093,-1.2286010980606079,0.25361776351928711],"max":[1.1459370851516724,1.205074667930603,4.245978832244873]},{"bufferView":4,"byteOffset":0,"count":44,"componentType":5126,"type":"VEC2"},{"bufferView":5,"byteOffset":0,"count":180,"componentType":5125,"type":"SCALAR"},{"bufferView":6,"byteOffset":0,"count":4446,"componentType":5126,"type":"VEC3","min":[-3.978123664855957,-3.4055991172790527,2.6510601043701172],"max":[4.6018528938293457,3.6175868511199951,7.2523283958435059]},{"bufferView":7,"byteOffset":0,"count":4446,"componentType":5126,"type":"VEC2"},{"bufferView":8,"byteOffset":0,"count":14253,"componentType":5125,"type":"SCALAR"}],"bufferViews":[{"buffer":0,"byteOffset":0,"byteLength":12996,"byteStride":12,"target":34962},{"buffer":0,"byteOffset":12996,"byteLength":8664,"byteStride":8,"target":34962},{"buffer":0,"byteOffset":21660,"byteLength":20772,"target":34963},{"buffer":0,"byteOffset":42432,"byteLength":528,"byteStride":12,"target":34962},{"buffer":0,"byteOffset":42960,"byteLength":352,"byteStride":8,"target":34962},{"buffer":0,"byteOffset":43312,"byteLength":720,"target":34963},{"buffer":0,"byteOffset":44032,"byteLength":53352,"byteStride":12,"target":34962},{"buffer":0,"byteOffset":97384,"byteLength":35568,"byteStride":8,"target":34962},{"buffer":0,"byteOffset":132952,"byteLength":57012,"target":34963}],"buffers":[{"byteLength":189964,"uri":"Tree02.bin"}]}