{"asset":{"generator":"3D Builder","version":"2.0"},"scene":0,"scenes":[{"nodes":[0]}],"nodes":[{"children":[1,2,3,4,5]},{"mesh":0,"matrix":[1,0,0,0,0,-1.1920928955078125E-7,-0.99999988079071045,0,0,0.99999988079071045,-1.1920928955078125E-7,0,-19.627334594726562,-4.6586494445800781,22.389328002929688,1]},{"mesh":1,"matrix":[1,0,0,0,0,-1.1920928955078125E-7,-0.99999988079071045,0,0,0.99999988079071045,-1.1920928955078125E-7,0,-19.627334594726562,-4.6586494445800781,22.389328002929688,1]},{"mesh":2,"matrix":[1,0,0,0,0,-1.1920928955078125E-7,-0.99999988079071045,0,0,0.99999988079071045,-1.1920928955078125E-7,0,-19.627334594726562,-4.6586494445800781,22.389328002929688,1]},{"mesh":3,"matrix":[1,0,0,0,0,-1.1920928955078125E-7,-0.99999988079071045,0,0,0.99999988079071045,-1.1920928955078125E-7,0,-19.627334594726562,-4.6586494445800781,22.389328002929688,1]},{"mesh":4,"matrix":[1,0,0,0,0,-1.1920928955078125E-7,-0.99999988079071045,0,0,0.99999988079071045,-1.1920928955078125E-7,0,-19.627334594726562,-4.6586494445800781,22.389328002929688,1]}],"meshes":[{"primitives":[{"attributes":{"POSITION":0},"mode":4,"indices":1,"material":0}]},{"primitives":[{"attributes":{"POSITION":2},"mode":4,"indices":3,"material":0}]},{"primitives":[{"attributes":{"POSITION":4},"mode":4,"indices":5,"material":0}]},{"primitives":[{"attributes":{"POSITION":6},"mode":4,"indices":7,"material":0}]},{"primitives":[{"attributes":{"POSITION":8},"mode":4,"indices":9,"material":0}]}],"materials":[{"name":"DefaultMaterial","pbrMetallicRoughness":{"baseColorFactor":[0.21223072707653046,0.21223072707653046,0.21223072707653046,1],"metallicFactor":0,"roughnessFactor":0},"alphaMode":"OPAQUE"}],"accessors":[{"bufferView":0,"byteOffset":0,"count":69469,"componentType":5126,"type":"VEC3","min":[-44.475009918212891,-7.865297794342041,4.6586527824401855],"max":[84.729682922363281,53.643962860107422,62.371799468994141]},{"bufferView":1,"byteOffset":0,"count":417018,"componentType":5125,"type":"SCALAR"},{"bufferView":2,"byteOffset":0,"count":6,"componentType":5126,"type":"VEC3","min":[-2.8901653289794922,16.051305770874023,47.154312133789063],"max":[-2.8464765548706055,16.243183135986328,47.249187469482422]},{"bufferView":3,"byteOffset":0,"count":24,"componentType":5125,"type":"SCALAR"},{"bufferView":4,"byteOffset":0,"count":5,"componentType":5126,"type":"VEC3","min":[-11.556235313415527,7.253199577331543,27.2948055267334],"max":[-11.324576377868652,7.5221362113952637,27.550262451171875]},{"bufferView":5,"byteOffset":0,"count":18,"componentType":5125,"type":"SCALAR"},{"bufferView":6,"byteOffset":0,"count":6,"componentType":5126,"type":"VEC3","min":[-11.643369674682617,7.408287525177002,27.697616577148437],"max":[-11.254345893859863,7.6699070930480957,27.964048385620117]},{"bufferView":7,"byteOffset":0,"count":24,"componentType":5125,"type":"SCALAR"},{"bufferView":8,"byteOffset":0,"count":6,"componentType":5126,"type":"VEC3","min":[-11.595423698425293,7.5611634254455566,28.11634635925293],"max":[-11.166831016540527,7.8442344665527344,28.393171310424805]},{"bufferView":9,"byteOffset":0,"count":24,"componentType":5125,"type":"SCALAR"}],"bufferViews":[{"buffer":0,"byteOffset":0,"byteLength":833628,"byteStride":12,"target":34962},{"buffer":0,"byteOffset":833628,"byteLength":1668072,"target":34963},{"buffer":0,"byteOffset":2501700,"byteLength":72,"byteStride":12,"target":34962},{"buffer":0,"byteOffset":2501772,"byteLength":96,"target":34963},{"buffer":0,"byteOffset":2501868,"byteLength":60,"byteStride":12,"target":34962},{"buffer":0,"byteOffset":2501928,"byteLength":72,"target":34963},{"buffer":0,"byteOffset":2502000,"byteLength":72,"byteStride":12,"target":34962},{"buffer":0,"byteOffset":2502072,"byteLength":96,"target":34963},{"buffer":0,"byteOffset":2502168,"byteLength":72,"byteStride":12,"target":34962},{"buffer":0,"byteOffset":2502240,"byteLength":96,"target":34963}],"buffers":[{"byteLength":2502336,"uri":"DinosaurSkull.bin"}]}