{"asset":{"generator":"3D Builder","version":"2.0"},"scene":0,"scenes":[{"nodes":[0]}],"nodes":[{"mesh":0,"matrix":[1,0,0,0,0,-1.1920928955078125E-7,-0.99999988079071045,0,0,0.99999988079071045,-1.1920928955078125E-7,0,-0.063372969627380371,0.27128994464874268,0.04330696165561676,1]}],"meshes":[{"primitives":[{"attributes":{"POSITION":0,"TEXCOORD_0":2},"mode":4,"indices":4,"material":0},{"attributes":{"POSITION":1,"TEXCOORD_0":3},"mode":4,"indices":5,"material":1}]}],"materials":[{"pbrMetallicRoughness":{"baseColorFactor":[1,1,1,1],"metallicFactor":0,"roughnessFactor":1,"baseColorTexture":{"index":0,"texCoord":0}},"alphaMode":"OPAQUE"},{"pbrMetallicRoughness":{"baseColorFactor":[1,1,1,1],"metallicFactor":0,"roughnessFactor":1,"baseColorTexture":{"index":1,"texCoord":0}},"alphaMode":"OPAQUE"}],"textures":[{"source":0,"sampler":0},{"source":1,"sampler":0}],"images":[{"uri":"1458044059-1.jpg"},{"uri":"newsprnt.jpg"}],"samplers":[{"magFilter":9729,"wrapS":10497,"wrapT":10497}],"accessors":[{"bufferView":0,"byteOffset":0,"count":10,"componentType":5126,"type":"VEC3","min":[-0.26334333419799805,0.010569877922534943,0.14511542022228241],"max":[0.39008927345275879,0.076044119894504547,0.59164881706237793]},{"bufferView":0,"byteOffset":120,"count":5,"componentType":5126,"type":"VEC3","min":[-0.26334333419799805,0.076043963432312012,0.1451154500246048],"max":[0.39008927345275879,0.076044119894504547,0.59164881706237793]},{"bufferView":1,"byteOffset":0,"count":10,"componentType":5126,"type":"VEC2"},{"bufferView":1,"byteOffset":80,"count":5,"componentType":5126,"type":"VEC2"},{"bufferView":2,"byteOffset":0,"count":39,"componentType":5125,"type":"SCALAR"},{"bufferView":2,"byteOffset":156,"count":9,"componentType":5125,"type":"SCALAR"}],"bufferViews":[{"buffer":0,"byteOffset":0,"byteLength":180,"byteStride":12,"target":34962},{"buffer":0,"byteOffset":180,"byteLength":120,"byteStride":8,"target":34962},{"buffer":0,"byteOffset":300,"byteLength":192,"target":34963}],"buffers":[{"byteLength":492,"uri":"b3.bin"}]}