{"asset":{"generator":"3D Builder","version":"2.0"},"scene":0,"scenes":[{"nodes":[0]}],"nodes":[{"mesh":0,"matrix":[1,0,0,0,0,-1.1920928955078125E-7,-0.99999988079071045,0,0,0.99999988079071045,-1.1920928955078125E-7,0,-9.2067747116088867,-12.011297225952148,-1.6160751581192017,1]}],"meshes":[{"primitives":[{"attributes":{"POSITION":0},"mode":4,"indices":1,"material":0}]}],"materials":[{"name":"DefaultMaterial","pbrMetallicRoughness":{"baseColorFactor":[0.21223072707653046,0.21223072707653046,0.21223072707653046,1],"metallicFactor":0,"roughnessFactor":0},"alphaMode":"OPAQUE"}],"accessors":[{"bufferView":0,"byteOffset":0,"count":40195,"componentType":5126,"type":"VEC3","min":[-4.5455379486083984,-21.689044952392578,12.011299133300781],"max":[23.959087371826172,19.456892013549805,31.981979370117188]},{"bufferView":1,"byteOffset":0,"count":241158,"componentType":5125,"type":"SCALAR"}],"bufferViews":[{"buffer":0,"byteOffset":0,"byteLength":482340,"byteStride":12,"target":34962},{"buffer":0,"byteOffset":482340,"byteLength":964632,"target":34963}],"buffers":[{"byteLength":1446972,"uri":"TrilobiteB.bin"}]}