{"asset":{"generator":"3D Builder","version":"2.0"},"scene":0,"scenes":[{"nodes":[0]}],"nodes":[{"mesh":0,"matrix":[-0.17763161659240723,-7.1195358941622544E-8,0.98409485816955566,0,0.98409473896026611,-2.0620068141852244E-7,0.17763140797615051,0,1.9027432074381068E-7,0.99999988079071045,1.0669072025848436E-7,0,-0.022328799590468407,-0.30987715721130371,-0.14458048343658447,1]}],"meshes":[{"primitives":[{"attributes":{"POSITION":0,"TEXCOORD_0":2},"mode":4,"indices":4,"material":0},{"attributes":{"POSITION":1,"TEXCOORD_0":3},"mode":4,"indices":5,"material":1}]}],"materials":[{"pbrMetallicRoughness":{"baseColorFactor":[1,1,1,1],"metallicFactor":0,"roughnessFactor":1,"baseColorTexture":{"index":0,"texCoord":0}},"alphaMode":"OPAQUE"},{"pbrMetallicRoughness":{"baseColorFactor":[1,1,1,1],"metallicFactor":0,"roughnessFactor":1,"baseColorTexture":{"index":1,"texCoord":0}},"alphaMode":"OPAQUE"}],"textures":[{"source":0,"sampler":0},{"source":1,"sampler":0}],"images":[{"uri":"vangoghmuseum-s0031V1962-3840.jpg"},{"uri":"newsprnt.jpg"}],"samplers":[{"magFilter":9729,"wrapS":10497,"wrapT":10497}],"accessors":[{"bufferView":0,"byteOffset":0,"count":10,"componentType":5126,"type":"VEC3","min":[0.026776827871799469,-0.19703370332717896,0.63854002952575684],"max":[0.17558911442756653,0.30711239576339722,1.2941474914550781]},{"bufferView":0,"byteOffset":120,"count":5,"componentType":5126,"type":"VEC3","min":[0.026776827871799469,-0.19703370332717896,0.63854002952575684],"max":[0.11088351905345917,0.2960759699344635,1.2941474914550781]},{"bufferView":1,"byteOffset":0,"count":10,"componentType":5126,"type":"VEC2"},{"bufferView":1,"byteOffset":80,"count":5,"componentType":5126,"type":"VEC2"},{"bufferView":2,"byteOffset":0,"count":39,"componentType":5125,"type":"SCALAR"},{"bufferView":2,"byteOffset":156,"count":9,"componentType":5125,"type":"SCALAR"}],"bufferViews":[{"buffer":0,"byteOffset":0,"byteLength":180,"byteStride":12,"target":34962},{"buffer":0,"byteOffset":180,"byteLength":120,"byteStride":8,"target":34962},{"buffer":0,"byteOffset":300,"byteLength":192,"target":34963}],"buffers":[{"byteLength":492,"uri":"vangoghmuseum.bin"}]}