{"asset":{"generator":"3D Builder","version":"2.0"},"scene":0,"scenes":[{"nodes":[0]}],"nodes":[{"mesh":0,"matrix":[4.7002239227294922,0,0,0,0,-5.6031035455816891E-7,-4.700223445892334,0,0,4.700223445892334,-5.6031035455816891E-7,0,0,0.00065830443054437637,-9.7841756030447868E-8,1]}],"meshes":[{"primitives":[{"attributes":{"POSITION":0,"TEXCOORD_0":1},"mode":4,"indices":2,"material":0}]}],"materials":[{"pbrMetallicRoughness":{"baseColorFactor":[1,1,1,1],"metallicFactor":1,"roughnessFactor":1,"baseColorTexture":{"index":0,"texCoord":0},"metallicRoughnessTexture":{"index":1,"texCoord":0}},"alphaMode":"OPAQUE"}],"textures":[{"source":0,"sampler":0},{"source":1,"sampler":0}],"images":[{"uri":"4165427830_2048x2048_6195987693227547908.png"},{"uri":"3382540958_1024x1024_17319628118832143767.png"}],"samplers":[{"magFilter":9729,"wrapS":10497,"wrapT":10497}],"accessors":[{"bufferView":0,"byteOffset":0,"count":17316,"componentType":5126,"type":"VEC3","min":[-0.062427390366792679,-0.184387668967247,-0.000140058109536767],"max":[0.062427390366792679,0.18438765406608582,0.15864093601703644]},{"bufferView":1,"byteOffset":0,"count":17316,"componentType":5126,"type":"VEC2"},{"bufferView":2,"byteOffset":0,"count":92796,"componentType":5125,"type":"SCALAR"}],"bufferViews":[{"buffer":0,"byteOffset":0,"byteLength":207792,"byteStride":12,"target":34962},{"buffer":0,"byteOffset":207792,"byteLength":138528,"byteStride":8,"target":34962},{"buffer":0,"byteOffset":346320,"byteLength":371184,"target":34963}],"buffers":[{"byteLength":717504,"uri":"Anglerfish.bin"}]}