{"asset":{"generator":"3D Builder","version":"2.0"},"scene":0,"scenes":[{"nodes":[0]}],"nodes":[{"mesh":0,"matrix":[40.083576202392578,0,0,0,0,-4.7783346417418215E-6,-40.083572387695313,0,0,40.083572387695313,-4.7783346417418215E-6,0,0,0.00024411661433987319,-6.4795528942340752E-8,1]}],"meshes":[{"primitives":[{"attributes":{"POSITION":0,"TEXCOORD_0":1},"mode":4,"indices":2,"material":0}]}],"materials":[{"pbrMetallicRoughness":{"baseColorFactor":[1,1,1,1],"metallicFactor":1,"roughnessFactor":1,"baseColorTexture":{"index":0,"texCoord":0},"metallicRoughnessTexture":{"index":1,"texCoord":0}},"alphaMode":"OPAQUE"}],"textures":[{"source":0,"sampler":0},{"source":1,"sampler":0}],"images":[{"uri":"532086544_2048x2048_6195987693227547908.png"},{"uri":"4044166968_4x4_17319628118832143767.png"}],"samplers":[{"magFilter":9729,"wrapS":10497,"wrapT":10497}],"accessors":[{"bufferView":0,"byteOffset":0,"count":16449,"componentType":5126,"type":"VEC3","min":[-0.0096045369282364845,-0.016748923808336258,-6.0901797951373737E-6],"max":[0.0096045369282364845,0.016748920083045959,0.039496921002864838]},{"bufferView":1,"byteOffset":0,"count":16449,"componentType":5126,"type":"VEC2"},{"bufferView":2,"byteOffset":0,"count":95052,"componentType":5125,"type":"SCALAR"}],"bufferViews":[{"buffer":0,"byteOffset":0,"byteLength":197388,"byteStride":12,"target":34962},{"buffer":0,"byteOffset":197388,"byteLength":131592,"byteStride":8,"target":34962},{"buffer":0,"byteOffset":328980,"byteLength":380208,"target":34963}],"buffers":[{"byteLength":709188,"uri":"AngelFish.bin"}]}