{"asset":{"generator":"3D Builder","version":"2.0"},"scene":0,"scenes":[{"nodes":[0]}],"nodes":[{"children":[1,2,3]},{"mesh":0,"matrix":[1,0,0,0,0,-1.1920928955078125E-7,-0.99999988079071045,0,0,0.99999988079071045,-1.1920928955078125E-7,0,-47.880558013916016,11.285677909851074,15.844437599182129,1]},{"mesh":1,"matrix":[1,0,0,0,0,-1.1920928955078125E-7,-0.99999988079071045,0,0,0.99999988079071045,-1.1920928955078125E-7,0,-47.880558013916016,11.285677909851074,15.844437599182129,1]},{"mesh":2,"matrix":[1,0,0,0,0,-1.1920928955078125E-7,-0.99999988079071045,0,0,0.99999988079071045,-1.1920928955078125E-7,0,-47.880558013916016,11.285677909851074,15.844437599182129,1]}],"meshes":[{"primitives":[{"attributes":{"POSITION":0},"mode":4,"indices":1,"material":0}]},{"primitives":[{"attributes":{"POSITION":2},"mode":4,"indices":3,"material":0}]},{"primitives":[{"attributes":{"POSITION":4},"mode":4,"indices":5,"material":0}]}],"materials":[{"name":"DefaultMaterial","pbrMetallicRoughness":{"baseColorFactor":[0.21223072707653046,0.21223072707653046,0.21223072707653046,1],"metallicFactor":0,"roughnessFactor":0},"alphaMode":"OPAQUE"}],"accessors":[{"bufferView":0,"byteOffset":0,"count":57160,"componentType":5126,"type":"VEC3","min":[30.071590423583984,-7.8957161903381348,2.6936748027801514],"max":[66.689529418945313,40.584598541259766,24.955562591552734]},{"bufferView":1,"byteOffset":0,"count":342948,"componentType":5125,"type":"SCALAR"},{"bufferView":2,"byteOffset":0,"count":3,"componentType":5126,"type":"VEC3","min":[53.567886352539063,-7.8890376091003418,2.7079639434814453],"max":[53.628620147705078,-7.8474059104919434,2.7294604778289795]},{"bufferView":3,"byteOffset":0,"count":6,"componentType":5125,"type":"SCALAR"},{"bufferView":4,"byteOffset":0,"count":6,"componentType":5126,"type":"VEC3","min":[54.239528656005859,-7.692288875579834,2.7073571681976318],"max":[54.314552307128906,-7.64677095413208,2.7820167541503906]},{"bufferView":5,"byteOffset":0,"count":24,"componentType":5125,"type":"SCALAR"}],"bufferViews":[{"buffer":0,"byteOffset":0,"byteLength":685920,"byteStride":12,"target":34962},{"buffer":0,"byteOffset":685920,"byteLength":1371792,"target":34963},{"buffer":0,"byteOffset":2057712,"byteLength":36,"byteStride":12,"target":34962},{"buffer":0,"byteOffset":2057748,"byteLength":24,"target":34963},{"buffer":0,"byteOffset":2057772,"byteLength":72,"byteStride":12,"target":34962},{"buffer":0,"byteOffset":2057844,"byteLength":96,"target":34963}],"buffers":[{"byteLength":2057940,"uri":"TrilobiteA.bin"}]}