{"asset":{"generator":"3D Builder","version":"2.0"},"scene":0,"scenes":[{"nodes":[0]}],"nodes":[{"mesh":0,"matrix":[1,0,0,0,0,-1.1920928955078125E-7,-0.99999988079071045,0,0,0.99999988079071045,-1.1920928955078125E-7,0,0.5,0.62614887952804565,-0.5046309232711792,1]}],"meshes":[{"primitives":[{"attributes":{"POSITION":0,"TEXCOORD_0":1},"mode":4,"indices":2,"material":0}]}],"materials":[{"pbrMetallicRoughness":{"baseColorFactor":[1,1,1,1],"metallicFactor":1,"roughnessFactor":1,"baseColorTexture":{"index":0,"texCoord":0},"metallicRoughnessTexture":{"index":1,"texCoord":0}},"alphaMode":"OPAQUE"}],"textures":[{"source":0,"sampler":0},{"source":1,"sampler":0}],"images":[{"uri":"2169220120_256x256_6195987693227547908.png"},{"uri":"1325807775_256x256_17319628118832143767.png"}],"samplers":[{"magFilter":9729,"wrapS":10497,"wrapT":10497}],"accessors":[{"bufferView":0,"byteOffset":0,"count":252,"componentType":5126,"type":"VEC3","min":[-0.12639465928077698,-0.11753255128860474,-0.0034493696875870228],"max":[0.12639465928077698,0.10827067494392395,0.25115132331848145]},{"bufferView":1,"byteOffset":0,"count":252,"componentType":5126,"type":"VEC2"},{"bufferView":2,"byteOffset":0,"count":1116,"componentType":5125,"type":"SCALAR"}],"bufferViews":[{"buffer":0,"byteOffset":0,"byteLength":3024,"byteStride":12,"target":34962},{"buffer":0,"byteOffset":3024,"byteLength":2016,"byteStride":8,"target":34962},{"buffer":0,"byteOffset":5040,"byteLength":4464,"target":34963}],"buffers":[{"byteLength":9504,"uri":"SpineBase.bin"}]}