{"asset":{"generator":"3D Builder","version":"2.0"},"scene":0,"scenes":[{"nodes":[0]}],"nodes":[{"mesh":0,"matrix":[1.8949326276779175,0,0,0,0,-2.2589357229207963E-7,-1.8949323892593384,0,0,1.8949323892593384,-2.2589357229207963E-7,0,0.50174206495285034,0.547130286693573,-0.52359157800674438,1]}],"meshes":[{"primitives":[{"attributes":{"POSITION":0,"TEXCOORD_0":1},"mode":4,"indices":2,"material":0}]}],"materials":[{"pbrMetallicRoughness":{"baseColorFactor":[1,1,1,1],"metallicFactor":1,"roughnessFactor":1,"baseColorTexture":{"index":0,"texCoord":0},"metallicRoughnessTexture":{"index":1,"texCoord":0}},"alphaMode":"OPAQUE"}],"textures":[{"source":0,"sampler":0},{"source":1,"sampler":0}],"images":[{"uri":"2745617441_512x512_6195987693227547908.png"},{"uri":"4086955385_512x512_17319628118832143767.png"}],"samplers":[{"magFilter":9729,"wrapS":10497,"wrapT":10497}],"accessors":[{"bufferView":0,"byteOffset":0,"count":177,"componentType":5126,"type":"VEC3","min":[-0.1306186318397522,-0.44752445816993713,-0.021098218858242035],"max":[0.12878003716468811,0.42262476682662964,0.23521620035171509]},{"bufferView":1,"byteOffset":0,"count":177,"componentType":5126,"type":"VEC2"},{"bufferView":2,"byteOffset":0,"count":894,"componentType":5125,"type":"SCALAR"}],"bufferViews":[{"buffer":0,"byteOffset":0,"byteLength":2124,"byteStride":12,"target":34962},{"buffer":0,"byteOffset":2124,"byteLength":1416,"byteStride":8,"target":34962},{"buffer":0,"byteOffset":3540,"byteLength":3576,"target":34963}],"buffers":[{"byteLength":7116,"uri":"Bone 01.bin"}]}