{"asset":{"generator":"3D Builder","version":"2.0"},"scene":0,"scenes":[{"nodes":[0]}],"nodes":[{"mesh":0,"matrix":[26.104238510131836,0,0,0,0,-3.1118677270569606E-6,-26.10423469543457,0,0,26.10423469543457,-3.1118677270569606E-6,0,0,-0.00039573581307195127,-0.015303165651857853,1]}],"meshes":[{"primitives":[{"attributes":{"POSITION":0,"TEXCOORD_0":1},"mode":4,"indices":2,"material":0}]}],"materials":[{"pbrMetallicRoughness":{"baseColorFactor":[1,1,1,1],"metallicFactor":1,"roughnessFactor":1,"baseColorTexture":{"index":0,"texCoord":0},"metallicRoughnessTexture":{"index":1,"texCoord":0}},"alphaMode":"OPAQUE"}],"textures":[{"source":0,"sampler":0},{"source":1,"sampler":0}],"images":[{"uri":"3052667136_2048x2048_6195987693227547908.png"},{"uri":"2269780264_4x4_17319628118832143767.png"}],"samplers":[{"magFilter":9729,"wrapS":10497,"wrapT":10497}],"accessors":[{"bufferView":0,"byteOffset":0,"count":11225,"componentType":5126,"type":"VEC3","min":[-0.011023513972759247,-0.022559827193617821,1.5159757822402753E-5],"max":[0.011023513972759247,0.021387381479144096,0.032571535557508469]},{"bufferView":1,"byteOffset":0,"count":11225,"componentType":5126,"type":"VEC2"},{"bufferView":2,"byteOffset":0,"count":65010,"componentType":5125,"type":"SCALAR"}],"bufferViews":[{"buffer":0,"byteOffset":0,"byteLength":134700,"byteStride":12,"target":34962},{"buffer":0,"byteOffset":134700,"byteLength":89800,"byteStride":8,"target":34962},{"buffer":0,"byteOffset":224500,"byteLength":260040,"target":34963}],"buffers":[{"byteLength":484540,"uri":"AngelFish3.bin"}]}