{"asset":{"generator":"3D Builder","version":"2.0"},"scene":0,"scenes":[{"nodes":[0]}],"nodes":[{"mesh":0,"matrix":[2.7083864212036133,0,0,0,0,-3.2286482110066572E-7,-2.7083861827850342,0,0,2.7083861827850342,-3.2286482110066572E-7,0,0.049353353679180145,0.010444364510476589,0.0389106459915638,1]}],"meshes":[{"primitives":[{"attributes":{"POSITION":0,"TEXCOORD_0":1},"mode":4,"indices":2,"material":0}]}],"materials":[{"pbrMetallicRoughness":{"baseColorFactor":[1,1,1,1],"metallicFactor":1,"roughnessFactor":1,"baseColorTexture":{"index":0,"texCoord":0},"metallicRoughnessTexture":{"index":1,"texCoord":0}},"alphaMode":"OPAQUE"}],"textures":[{"source":0,"sampler":0},{"source":1,"sampler":0}],"images":[{"uri":"3503906950_2048x2048_6195987693227547908.png"},{"uri":"2721020078_1024x1024_17319628118832143767.png"}],"samplers":[{"magFilter":9729,"wrapS":10497,"wrapT":10497}],"accessors":[{"bufferView":0,"byteOffset":0,"count":9848,"componentType":5126,"type":"VEC3","min":[-0.13007205724716187,-0.18396903574466705,-0.0038563038688153028],"max":[0.093627281486988068,0.21270249783992767,0.17539112269878387]},{"bufferView":1,"byteOffset":0,"count":9848,"componentType":5126,"type":"VEC2"},{"bufferView":2,"byteOffset":0,"count":53979,"componentType":5125,"type":"SCALAR"}],"bufferViews":[{"buffer":0,"byteOffset":0,"byteLength":118176,"byteStride":12,"target":34962},{"buffer":0,"byteOffset":118176,"byteLength":78784,"byteStride":8,"target":34962},{"buffer":0,"byteOffset":196960,"byteLength":215916,"target":34963}],"buffers":[{"byteLength":412876,"uri":"Koifish.bin"}]}